<?xml version="1.0" encoding="utf-8"?>
<!-- Generator: Adobe Adobe Illustrator 24.2.0, SVG Export Plug-In . SVG Version: 6.00 Build 0)  -->
<svg version="1.1" id="Layer_1" xmlns="http://www.w3.org/2000/svg" xmlns:xlink="http://www.w3.org/1999/xlink" x="0px" y="0px"
	 viewBox="0 0 1000 1000" style="enable-background:new 0 0 1000 1000;" xml:space="preserve">
<style type="text/css">
	.st0{fill:#425377;}
	.st1{fill:#185AA5;}
	.st2{fill:#E9ECEF;}
	.st3{fill:#9EB3BC;}
	.st4{fill:#455876;}
	.st5{fill:#0099CB;}
	.st6{fill:#58BC4A;}
	.st7{fill:#FFD500;}
	.st8{fill:#A039B7;}
</style>
<path class="st0" d="M798.66,824.5c-4.03,5.38-44.04,23.21-44.04,23.21V641.92"/>
<path class="st1" d="M96.14,803.11V196.89c0-53.27,43.19-96.46,96.46-96.46H807.4c53.27,0,96.46,43.19,96.46,96.46v606.22
	c0,53.27-43.19,96.46-96.46,96.46H192.6C139.33,899.57,96.14,856.38,96.14,803.11z"/>
<rect x="257.56" y="397.24" width="139.26" height="270"/>
<polygon points="611.07,858.33 611.07,469.06 754.62,469.06 754.62,847.71 "/>
<path d="M737.12,633.74c41.23,0,81.27-1.32,121.56-1.32c0,119.05,38.94,246.09-121.56,218.4V633.74z"/>
<rect x="424.67" y="337.3" width="160.69" height="396.36"/>
<path class="st5" d="M150.52,655.96c106.49-22.59,211.2-38.75,310.83-0.84c99.63,37.92,195.02,110.48,277.09,192.58
	c-54.84,17.27-116.75,8.33-175.63,5.4c-62.5-3.11-122.14-1.95-184.28-1.95c-48.51,0-139.76,17.84-186.68,0.16
	C145.25,833.76,150.52,669.17,150.52,655.96z"/>
<path class="st6" d="M150.55,707.46c98.64-39.97,215.58-31.7,318.32-3.06s201.11,81.29,285.75,143.31
	c-53.85,18.16-117.83,10.33-181.12,10.33c-64.5,0-125.96,0-190.04,0c-48.11-0.36-149.9,6.64-198.28-6.72
	C137.12,838.05,149.85,745.14,150.55,707.46z"/>
<polygon points="505.02,258.03 424.67,337.3 585.36,337.3 "/>
<path d="M484.66,292.64v-69.22c0-5.25,4.25-9.5,9.5-9.5h21.71c5.25,0,9.5,4.25,9.5,9.5v69.22c0,5.25-4.25,9.5-9.5,9.5h-21.71
	C488.92,302.14,484.66,297.89,484.66,292.64z"/>
<polygon class="st7" points="300.35,223.93 306.68,243.02 327.19,243.02 310.6,254.83 316.94,273.93 300.35,262.12 283.75,273.93 
	290.09,254.83 273.5,243.02 294.01,243.02 "/>
</svg>
